<?xml version="1.0" encoding="UTF-8" standalone="no"?>
<!-- Created with Inkscape (http://www.inkscape.org/) -->

<svg
   xmlns:dc="http://purl.org/dc/elements/1.1/"
   xmlns:cc="http://creativecommons.org/ns#"
   xmlns:rdf="http://www.w3.org/1999/02/22-rdf-syntax-ns#"
   xmlns:svg="http://www.w3.org/2000/svg"
   xmlns="http://www.w3.org/2000/svg"
   xmlns:xlink="http://www.w3.org/1999/xlink"
   xmlns:sodipodi="http://sodipodi.sourceforge.net/DTD/sodipodi-0.dtd"
   xmlns:inkscape="http://www.inkscape.org/namespaces/inkscape"
   width="48"
   height="48"
   id="svg2"
   inkscape:label="Pozadí"
   sodipodi:version="0.32"
   inkscape:version="0.92.3 (2405546, 2018-03-11)"
   version="1.0"
   sodipodi:docname="icon_opc_python.svg"
   inkscape:output_extension="org.inkscape.output.svg.inkscape">
  <defs
     id="defs3">
    <linearGradient
       inkscape:collect="always"
       id="linearGradient7200">
      <stop
         style="stop-color:#000000;stop-opacity:1;"
         offset="0"
         id="stop7202" />
      <stop
         style="stop-color:#000000;stop-opacity:0;"
         offset="1"
         id="stop7204" />
    </linearGradient>
    <linearGradient
       id="linearGradient7064">
      <stop
         id="stop7066"
         offset="0"
         style="stop-color:#ffffff;stop-opacity:1" />
      <stop
         id="stop7068"
         offset="1"
         style="stop-color:#e0e0e0;stop-opacity:1;" />
    </linearGradient>
    <radialGradient
       inkscape:collect="always"
       xlink:href="#linearGradient7064"
       id="radialGradient7144"
       gradientUnits="userSpaceOnUse"
       gradientTransform="matrix(2.424483,0,0,2.8285635,-21.723365,-36.817693)"
       cx="15.25"
       cy="20.75"
       fx="15.25"
       fy="20.75"
       r="12" />
    <radialGradient
       inkscape:collect="always"
       xlink:href="#linearGradient7064"
       id="radialGradient7168"
       gradientUnits="userSpaceOnUse"
       gradientTransform="matrix(2.424483,0,0,2.8285635,-21.723365,-36.817693)"
       cx="15.25"
       cy="20.75"
       fx="15.25"
       fy="20.75"
       r="12" />
    <radialGradient
       inkscape:collect="always"
       xlink:href="#linearGradient7064"
       id="radialGradient7170"
       gradientUnits="userSpaceOnUse"
       gradientTransform="matrix(2.424483,0,0,2.8285635,-21.723365,-36.817693)"
       cx="15.25"
       cy="20.75"
       fx="15.25"
       fy="20.75"
       r="12" />
    <radialGradient
       inkscape:collect="always"
       xlink:href="#linearGradient7200"
       id="radialGradient7206"
       cx="25.013903"
       cy="27.670679"
       fx="25.013903"
       fy="27.670679"
       r="21.301592"
       gradientTransform="matrix(1,0,0,0.9543569,0,1.2629759)"
       gradientUnits="userSpaceOnUse" />
    <radialGradient
       id="radialGradient24190"
       gradientUnits="userSpaceOnUse"
       cy="63.965"
       cx="15.116"
       gradientTransform="scale(1.644,0.60828)"
       r="12.289">
      <stop
         id="stop4116"
         offset="0" />
      <stop
         id="stop4118"
         stop-opacity="0"
         offset="1" />
    </radialGradient>
    <linearGradient
       id="linearGradient3558"
       y2="169.28"
       gradientUnits="userSpaceOnUse"
       x2="116.97"
       gradientTransform="matrix(0.21718,0,0,0.21718,52.213,9.1432)"
       y1="89.129997"
       x1="119.19">
      <stop
         id="stop4078"
         stop-color="#ffe253"
         offset="0" />
      <stop
         id="stop4080"
         stop-color="#ffca1c"
         offset="1" />
    </linearGradient>
    <linearGradient
       id="linearGradient3560"
       y2="64.053001"
       xlink:href="#linearGradient4126"
       gradientUnits="userSpaceOnUse"
       x2="94.693001"
       gradientTransform="matrix(0.21718,0,0,0.21718,58.407,15.312)"
       y1="112.51"
       x1="94.693001" />
    <linearGradient
       id="linearGradient4126">
      <stop
         id="stop4128"
         stop-color="#fff"
         offset="0" />
      <stop
         id="stop4130"
         stop-color="#fff"
         stop-opacity=".16495"
         offset="1" />
    </linearGradient>
    <linearGradient
       id="linearGradient3562"
       y2="102"
       gradientUnits="userSpaceOnUse"
       x2="142.62"
       gradientTransform="matrix(0.21718,0,0,0.21718,51.567,-11.58)"
       y1="102"
       x1="59.729">
      <stop
         id="stop4094"
         stop-color="#3778ae"
         offset="0" />
      <stop
         id="stop4096"
         stop-color="#366c99"
         offset="1" />
    </linearGradient>
    <linearGradient
       id="linearGradient3564"
       y2="64.053001"
       xlink:href="#linearGradient4126"
       gradientUnits="userSpaceOnUse"
       x2="94.693001"
       gradientTransform="matrix(0.21718,0,0,0.21718,51.567,-11.58)"
       y1="112.51"
       x1="94.693001" />
  </defs>
  <sodipodi:namedview
     id="base"
     pagecolor="#ffffff"
     bordercolor="#666666"
     borderopacity="1.0"
     inkscape:pageopacity="0.0"
     inkscape:pageshadow="2"
     inkscape:zoom="4"
     inkscape:cx="-42.482895"
     inkscape:cy="0.61008619"
     inkscape:document-units="px"
     inkscape:current-layer="layer1"
     width="48px"
     height="48px"
     inkscape:showpageshadow="false"
     gridtolerance="10000"
     inkscape:window-width="1920"
     inkscape:window-height="1031"
     inkscape:window-x="0"
     inkscape:window-y="25"
     showguides="true"
     inkscape:guide-bbox="true"
     showborder="false"
     borderlayer="false"
     showgrid="false"
     inkscape:window-maximized="1">
    <inkscape:grid
       type="xygrid"
       id="grid4948" />
  </sodipodi:namedview>
  <metadata
     id="metadata6">
    <rdf:RDF>
      <cc:Work
         rdf:about="">
        <dc:format>image/svg+xml</dc:format>
        <dc:type
           rdf:resource="http://purl.org/dc/dcmitype/StillImage" />
        <dc:title />
        <dc:contributor>
          <cc:Agent>
            <dc:title>Lapo Calamandrei</dc:title>
          </cc:Agent>
        </dc:contributor>
        <dc:subject>
          <rdf:Bag>
            <rdf:li>document</rdf:li>
            <rdf:li>emblem</rdf:li>
            <rdf:li>paper</rdf:li>
            <rdf:li>sheet</rdf:li>
          </rdf:Bag>
        </dc:subject>
        <cc:license
           rdf:resource="http://creativecommons.org/licenses/GPL/2.0/" />
        <dc:creator>
          <cc:Agent>
            <dc:title>Riccardo Buzzotta</dc:title>
          </cc:Agent>
        </dc:creator>
      </cc:Work>
      <cc:License
         rdf:about="http://creativecommons.org/licenses/GPL/2.0/">
        <cc:permits
           rdf:resource="http://web.resource.org/cc/Reproduction" />
        <cc:permits
           rdf:resource="http://web.resource.org/cc/Distribution" />
        <cc:requires
           rdf:resource="http://web.resource.org/cc/Notice" />
        <cc:permits
           rdf:resource="http://web.resource.org/cc/DerivativeWorks" />
        <cc:requires
           rdf:resource="http://web.resource.org/cc/ShareAlike" />
        <cc:requires
           rdf:resource="http://web.resource.org/cc/SourceCode" />
      </cc:License>
    </rdf:RDF>
  </metadata>
  <g
     inkscape:label="Vrstva 1"
     inkscape:groupmode="layer"
     id="layer1">
    <g
       id="layer6"
       inkscape:label="Shadow"
       transform="translate(-32.210156,-0.845738)" />
    <g
       style="display:inline"
       inkscape:label="Base"
       id="g5772"
       transform="translate(-34.210156,-0.845738)" />
    <g
       id="g2637"
       inkscape:label="base"
       style="display:inline"
       transform="translate(-46.823669,46.945542)" />
    <path
       sodipodi:type="arc"
       style="opacity:0.2;fill:url(#radialGradient7206);fill-opacity:1;fill-rule:evenodd;stroke:none;stroke-width:0.89999998;stroke-linecap:round;stroke-linejoin:round;stroke-miterlimit:10.43299961;stroke-dasharray:none;stroke-opacity:1"
       id="path7198"
       sodipodi:cx="25.013903"
       sodipodi:cy="27.670679"
       sodipodi:rx="21.301592"
       sodipodi:ry="20.329321"
       d="M 46.315495 27.670679 A 21.301592 20.329321 0 1 1  3.7123108,27.670679 A 21.301592 20.329321 0 1 1  46.315495 27.670679 z"
       transform="matrix(0.8332535,0.8264837,-0.7042168,0.709985,21.643235,-16.648672)" />
    <g
       id="g7146"
       transform="matrix(0.8660254,0.4999999,-0.4999999,0.8660254,27.607695,11.875644)">
      <g
         id="g7148">
        <rect
           style="color:#000000;fill:url(#radialGradient7168);fill-opacity:1;fill-rule:nonzero;stroke:#747672;stroke-width:0.90000005;stroke-linecap:butt;stroke-linejoin:miter;marker:none;marker-start:none;marker-mid:none;marker-end:none;stroke-miterlimit:10.43299961;stroke-dasharray:none;stroke-dashoffset:0;stroke-opacity:1;visibility:visible;display:inline;overflow:visible;enable-background:accumulate"
           id="rect7150"
           width="23"
           height="27"
           x="0.5"
           y="0.5"
           rx="2.0745242"
           ry="2.0745242" />
        <rect
           ry="1.1635696"
           rx="1.1635696"
           y="1.5"
           x="1.5"
           height="25"
           width="21"
           id="rect7152"
           style="color:#000000;fill:none;fill-opacity:1;fill-rule:nonzero;stroke:#ffffff;stroke-width:1;stroke-linecap:butt;stroke-linejoin:miter;marker:none;marker-start:none;marker-mid:none;marker-end:none;stroke-miterlimit:10.43299961;stroke-dasharray:none;stroke-dashoffset:0;stroke-opacity:0.94117647;visibility:visible;display:inline;overflow:visible;enable-background:accumulate" />
      </g>
      <g
         style="stroke:#babdb6"
         id="g7154">
        <path
           style="fill:none;fill-rule:evenodd;stroke:#babdb6;stroke-width:0.90000004;stroke-linecap:round;stroke-linejoin:miter;stroke-miterlimit:4;stroke-dasharray:none;stroke-opacity:1"
           d="M 5.4975854,18.5 L 18.50123,18.5"
           id="path7156" />
        <path
           style="fill:none;fill-rule:evenodd;stroke:#babdb6;stroke-width:0.90000004;stroke-linecap:round;stroke-linejoin:miter;stroke-miterlimit:4;stroke-dasharray:none;stroke-opacity:1"
           d="M 5.4795033,21.5 L 11.537089,21.5"
           id="path7158" />
        <path
           style="fill:none;fill-rule:evenodd;stroke:#babdb6;stroke-width:0.90000004;stroke-linecap:round;stroke-linejoin:miter;stroke-miterlimit:4;stroke-dasharray:none;stroke-opacity:1"
           d="M 5.4975854,15.5 L 18.50123,15.5"
           id="path7160" />
        <path
           style="fill:none;fill-rule:evenodd;stroke:#babdb6;stroke-width:0.90000004;stroke-linecap:round;stroke-linejoin:miter;stroke-miterlimit:4;stroke-dasharray:none;stroke-opacity:1"
           d="M 5.4975854,12.5 L 18.50123,12.5"
           id="path7162" />
        <path
           style="fill:none;fill-rule:evenodd;stroke:#babdb6;stroke-width:0.90000004;stroke-linecap:round;stroke-linejoin:miter;stroke-miterlimit:4;stroke-dasharray:none;stroke-opacity:1"
           d="M 5.4975854,9.5 L 18.50123,9.5"
           id="path7164" />
        <path
           style="fill:none;fill-rule:evenodd;stroke:#babdb6;stroke-width:0.90000004;stroke-linecap:round;stroke-linejoin:miter;stroke-miterlimit:4;stroke-dasharray:none;stroke-opacity:1"
           d="M 5.4975854,6.5 L 18.50123,6.5"
           id="path7166" />
      </g>
    </g>
    <path
       style="opacity:0.1;color:#000000;fill:#000000;fill-opacity:1;fill-rule:nonzero;stroke:none;stroke-width:0.99999994;stroke-linecap:butt;stroke-linejoin:miter;marker:none;marker-start:none;marker-mid:none;marker-end:none;stroke-miterlimit:10.43299961;stroke-dasharray:none;stroke-dashoffset:0;stroke-opacity:1;visibility:visible;display:inline;overflow:visible;enable-background:accumulate"
       d="M 28.375 12.75 C 27.534366 12.80947 26.734161 13.278034 26.28125 14.0625 L 14.84375 33.875 C 14.819286 33.917373 14.803094 33.956875 14.78125 34 L 28.3125 37.625 C 30.036587 38.086968 31.819282 37.067838 32.28125 35.34375 L 37.125 17.28125 L 29.84375 13.09375 C 29.37307 12.822003 28.879381 12.714318 28.375 12.75 z "
       id="path7187" />
    <g
       id="g7122"
       transform="matrix(0.9659258,0.258819,-0.258819,0.9659258,15.032357,4.3712099)">
      <g
         id="g7124">
        <rect
           style="color:#000000;fill:url(#radialGradient7144);fill-opacity:1;fill-rule:nonzero;stroke:#747672;stroke-width:0.90000003;stroke-linecap:butt;stroke-linejoin:miter;marker:none;marker-start:none;marker-mid:none;marker-end:none;stroke-miterlimit:10.43299961;stroke-dasharray:none;stroke-dashoffset:0;stroke-opacity:1;visibility:visible;display:inline;overflow:visible;enable-background:accumulate"
           id="rect7126"
           width="23"
           height="27"
           x="0.5"
           y="0.5"
           rx="2.0745242"
           ry="2.0745242" />
        <rect
           ry="1.1635696"
           rx="1.1635696"
           y="1.5"
           x="1.5"
           height="25"
           width="21"
           id="rect7128"
           style="color:#000000;fill:none;fill-opacity:1;fill-rule:nonzero;stroke:#ffffff;stroke-width:1;stroke-linecap:butt;stroke-linejoin:miter;marker:none;marker-start:none;marker-mid:none;marker-end:none;stroke-miterlimit:10.43299961;stroke-dasharray:none;stroke-dashoffset:0;stroke-opacity:0.94117647;visibility:visible;display:inline;overflow:visible;enable-background:accumulate" />
      </g>
      <g
         style="stroke:#babdb6"
         id="g7130">
        <path
           style="fill:none;fill-rule:evenodd;stroke:#babdb6;stroke-width:0.90000003;stroke-linecap:round;stroke-linejoin:miter;stroke-miterlimit:4;stroke-dasharray:none;stroke-opacity:1"
           d="M 5.4975854,18.5 L 18.50123,18.5"
           id="path7132" />
        <path
           style="fill:none;fill-rule:evenodd;stroke:#babdb6;stroke-width:0.90000003;stroke-linecap:round;stroke-linejoin:miter;stroke-miterlimit:4;stroke-dasharray:none;stroke-opacity:1"
           d="M 5.4795033,21.5 L 11.537089,21.5"
           id="path7134" />
        <path
           style="fill:none;fill-rule:evenodd;stroke:#babdb6;stroke-width:0.90000003;stroke-linecap:round;stroke-linejoin:miter;stroke-miterlimit:4;stroke-dasharray:none;stroke-opacity:1"
           d="M 5.4975854,15.5 L 18.50123,15.5"
           id="path7136" />
        <path
           style="fill:none;fill-rule:evenodd;stroke:#babdb6;stroke-width:0.90000003;stroke-linecap:round;stroke-linejoin:miter;stroke-miterlimit:4;stroke-dasharray:none;stroke-opacity:1"
           d="M 5.4975854,12.5 L 18.50123,12.5"
           id="path7138" />
        <path
           style="fill:none;fill-rule:evenodd;stroke:#babdb6;stroke-width:0.90000003;stroke-linecap:round;stroke-linejoin:miter;stroke-miterlimit:4;stroke-dasharray:none;stroke-opacity:1"
           d="M 5.4975854,9.5 L 18.50123,9.5"
           id="path7140" />
        <path
           style="fill:none;fill-rule:evenodd;stroke:#babdb6;stroke-width:0.90000003;stroke-linecap:round;stroke-linejoin:miter;stroke-miterlimit:4;stroke-dasharray:none;stroke-opacity:1"
           d="M 5.4975854,6.5 L 18.50123,6.5"
           id="path7142" />
      </g>
    </g>
    <path
       style="color:#000000;fill:#000000;fill-opacity:1;fill-rule:nonzero;stroke:none;stroke-width:0.99999994;stroke-linecap:butt;stroke-linejoin:miter;marker:none;marker-start:none;marker-mid:none;marker-end:none;stroke-miterlimit:10.43299961;stroke-dasharray:none;stroke-dashoffset:0;stroke-opacity:1;visibility:visible;display:inline;overflow:visible;enable-background:accumulate;opacity:0.1"
       d="M 17 4.90625 C 15.793291 4.8322169 14.669497 5.6280447 14.34375 6.84375 L 8.5 28.59375 L 21.4375 28.59375 C 23.161754 28.59375 24.59375 27.161754 24.59375 25.4375 L 24.59375 6.875 L 17.53125 5 C 17.357578 4.9534647 17.172387 4.9168262 17 4.90625 z "
       id="path7174" />
    <g
       id="g7110">
      <g
         id="g7044">
        <rect
           style="color:#000000;fill:url(#radialGradient7170);fill-opacity:1;fill-rule:nonzero;stroke:#888a85;stroke-width:0.99999994;stroke-linecap:butt;stroke-linejoin:miter;marker:none;marker-start:none;marker-mid:none;marker-end:none;stroke-miterlimit:10.43299961;stroke-dasharray:none;stroke-dashoffset:0;stroke-opacity:1;visibility:visible;display:inline;overflow:visible;enable-background:accumulate"
           id="rect7046"
           width="23"
           height="27"
           x="0.5"
           y="0.5"
           rx="2.0745242"
           ry="2.0745242" />
        <rect
           ry="1.1635696"
           rx="1.1635696"
           y="1.5"
           x="1.5"
           height="25"
           width="21"
           id="rect7050"
           style="color:#000000;fill:none;fill-opacity:1;fill-rule:nonzero;stroke:#ffffff;stroke-width:1;stroke-linecap:butt;stroke-linejoin:miter;marker:none;marker-start:none;marker-mid:none;marker-end:none;stroke-miterlimit:10.43299961;stroke-dasharray:none;stroke-dashoffset:0;stroke-opacity:0.94117647;visibility:visible;display:inline;overflow:visible;enable-background:accumulate" />
      </g>
      <g
         style="stroke:#babdb6"
         id="g7102">
        <path
           style="fill:none;fill-rule:evenodd;stroke:#babdb6;stroke-width:1;stroke-linecap:round;stroke-linejoin:miter;stroke-miterlimit:4;stroke-dasharray:none;stroke-opacity:1"
           d="M 5.4975854,18.5 L 18.50123,18.5"
           id="path7090" />
        <path
           style="fill:none;fill-rule:evenodd;stroke:#babdb6;stroke-width:1.00000012;stroke-linecap:round;stroke-linejoin:miter;stroke-miterlimit:4;stroke-dasharray:none;stroke-opacity:1"
           d="M 5.4795033,21.5 L 11.537089,21.5"
           id="path7092" />
        <path
           style="fill:none;fill-rule:evenodd;stroke:#babdb6;stroke-width:1;stroke-linecap:round;stroke-linejoin:miter;stroke-miterlimit:4;stroke-dasharray:none;stroke-opacity:1"
           d="M 5.4975854,15.5 L 18.50123,15.5"
           id="path7094" />
        <path
           style="fill:none;fill-rule:evenodd;stroke:#babdb6;stroke-width:1;stroke-linecap:round;stroke-linejoin:miter;stroke-miterlimit:4;stroke-dasharray:none;stroke-opacity:1"
           d="M 5.4975854,12.5 L 18.50123,12.5"
           id="path7096" />
        <path
           style="fill:none;fill-rule:evenodd;stroke:#babdb6;stroke-width:1;stroke-linecap:round;stroke-linejoin:miter;stroke-miterlimit:4;stroke-dasharray:none;stroke-opacity:1"
           d="M 5.4975854,9.5 L 18.50123,9.5"
           id="path7098" />
        <path
           style="fill:none;fill-rule:evenodd;stroke:#babdb6;stroke-width:1;stroke-linecap:round;stroke-linejoin:miter;stroke-miterlimit:4;stroke-dasharray:none;stroke-opacity:1"
           d="M 5.4975854,6.5 L 18.50123,6.5"
           id="path7100" />
      </g>
    </g>
    <g
       transform="translate(-1.2993779,-2.6568916)"
       id="layer2">
      <ellipse
         style="opacity:0.39607999;fill:url(#radialGradient24190)"
         ry="7.4751287"
         rx="20.203051"
         cy="38.908627"
         cx="24.849752"
         id="path4112"
         transform="matrix(0.70455,0,0,0.602,15.976,20.077)" />
      <g
         id="g3545"
         transform="translate(-44,-0.99911)">
        <path
           style="fill:url(#linearGradient3558)"
           inkscape:connector-curvature="0"
           id="path2732"
           d="m 83.187,43.251 c 0,1.676 -1.455,2.525 -2.932,2.949 -2.222,0.638 -4.005,0.541 -5.862,0 -1.55,-0.452 -2.932,-1.375 -2.932,-2.949 v -5.532 c 0,-1.592 1.327,-2.951 2.932,-2.951 l 5.768,-0.375 c 1.952,0 3.228,-1.219 3.228,-3.219 L 83.921,28.5 h 2.198 c 1.707,0 2.51,1.268 2.931,2.949 0.587,2.335 0.613,4.081 0,5.901 -0.592,1.768 -1.227,2.949 -2.931,2.949 h -2.932 -5.862 v -0.011 h 5.862 z"
           sodipodi:nodetypes="csscccccccsscccccc" />
        <path
           style="fill:#ffffff"
           inkscape:connector-curvature="0"
           id="path2736"
           d="m 79.523,43.618 c 0,-0.611 0.493,-1.106 1.099,-1.106 0.608,0 1.099,0.495 1.099,1.106 0,0.612 -0.491,1.107 -1.099,1.107 -0.606,0 -1.099,-0.495 -1.099,-1.107 z" />
        <path
           style="opacity:0.83721002;fill:url(#linearGradient3560)"
           inkscape:connector-curvature="0"
           id="path2742"
           d="m 83.914,28.5 v 2.593 c 0,1.641 -3.381,3.688 -3.656,3.688 h -5.75 l -1.238,0.126 c -1.261,0.323 -1.109,1.148 -1.481,2.686 -0.138,0.57 -0.242,1.104 -0.312,1.594 -0.005,0.035 0.005,0.059 0,0.094 v 1.625 c 3.836,-4.28 7.927,-4.603 9.969,-4.594 4.073,0.018 5.992,-0.983 7.937,-3.187 -0.006,-0.044 0.007,-0.082 0,-0.125 -0.075,-0.491 -0.206,-1.016 -0.344,-1.563 -0.197,-0.788 -0.455,-1.481 -0.875,-2 -0.008,-0.01 -0.022,-0.021 -0.031,-0.031 -0.005,-0.004 -0.026,0.004 -0.031,0 -0.014,-0.017 -0.017,-0.046 -0.031,-0.063 -0.03,-0.02 -0.033,-0.042 -0.063,-0.062 -0.007,-0.008 -0.024,0.008 -0.031,0 -0.444,-0.288 -0.984,-0.503 -1.531,-0.594 -0.496,-0.082 -0.994,-0.144 -1.5,-0.187 h -0.313 z"
           sodipodi:nodetypes="cccccssccscsssssssssccc" />
        <path
           style="fill:none;stroke:#bb9400"
           inkscape:connector-curvature="0"
           id="path2744"
           d="m 83.481,43.251 c 0,1.676 -1.749,2.525 -3.226,2.949 -2.222,0.638 -4.005,0.541 -5.862,0 -1.55,-0.452 -2.932,-1.375 -2.932,-2.949 v -5.826 c 0,-1.886 1.369,-2.909 2.932,-2.909 l 5.213,-0.031 c 1.953,0 3.929,-1.999 3.929,-3.999 V 28.5 h 2.584 c 1.707,0 2.51,1.268 2.931,2.949 0.587,2.335 0.613,4.081 0,5.901 -0.592,1.768 -1.227,3.159 -2.931,3.159 h -2.638 -6.156 v -0.012 l 6.156,0.021 z"
           sodipodi:nodetypes="csscccccccsscccccc" />
        <path
           style="fill:#ffffff;fill-opacity:0.38356"
           inkscape:connector-curvature="0"
           id="path2746"
           d="m 84.037,29 v 1.468 c 0,2.286 -2.351,4.561 -4.591,4.561 h -5.063 c -1.322,0 -2.406,1.375 -2.406,2.689 v 5.532 c 0,0.641 0.228,1.119 0.687,1.531 0.459,0.412 1.15,0.726 1.875,0.937 1.79,0.522 3.422,0.616 5.563,0 0.695,-0.199 1.62,-0.576 2.085,-0.979 0.465,-0.403 0.802,-0.796 0.802,-1.489 v -2.228 h -5.668 -0.5 v -0.5 -0.031 -0.5 h 0.5 5.875 0.5 v 0.031 h 2.437 c 0.737,0 1.097,-0.29 1.463,-0.714 0.366,-0.424 0.685,-1.256 0.975,-2.121 0.58,-1.724 0.572,-3.344 0,-5.625 -0.2,-0.796 -0.49,-1.44 -0.875,-1.875 C 87.31,29.252 86.863,29 86.133,29 Z m 1,1 h 1.096 c 0.319,0 0.736,0.257 0.813,0.343 0.222,0.252 0.478,0.761 0.656,1.469 0.546,2.174 0.547,3.53 0.031,5.063 -0.277,0.826 -0.565,1.604 -0.781,1.835 -0.195,0.208 -0.608,0.312 -0.719,0.312 h -1.437 v -0.031 h -1.5 -5.875 -1.5 v 1.5 0.031 1.5 h 1.5 4.668 v 1.228 c 0,0.446 -0.597,0.723 -0.7,0.812 -0.299,0.259 -0.829,0.513 -1.437,0.688 -1.978,0.568 -3.375,0.482 -5.031,0 -0.627,-0.183 -1.17,-0.451 -1.469,-0.719 C 73.345,44.025 73.328,44.006 73.321,44 73.278,43.959 73.227,43.908 73.196,43.875 73.166,43.84 73.123,43.781 73.102,43.75 73.09,43.731 73.054,43.681 73.039,43.656 73.024,43.621 73.017,43.57 73.008,43.531 c -0.006,-0.032 -0.028,-0.09 -0.031,-0.125 -0.003,-0.045 0,-0.105 0,-0.156 v -5.532 c 0,-0.758 0.648,-1.689 1.406,-1.689 h 5.063 c 2.816,0 5.591,-2.704 5.591,-5.561 z"
           sodipodi:nodetypes="ccccccssssccccccccccccssssccccssssccccccccccccsssssssssscccccc" />
        <g
           id="g3534"
           transform="translate(0.038609,19.855)">
          <path
             style="fill:url(#linearGradient3562)"
             inkscape:connector-curvature="0"
             id="path2730"
             d="m 70.815,4.8256 c 0,-1.6766 0.45,-2.5887 2.932,-3.0231 1.685,-0.2953 3.846,-0.3322 5.862,0 1.592,0.2628 2.932,1.4486 2.932,3.0231 v 5.5314 c 0,1.622 -1.301,2.951 -2.932,2.951 l -5.316,0.294 c -1.989,0 -4.044,1.738 -4.044,3.656 l -0.168,2.318 h -2.015 c -1.705,0 -2.697,-1.229 -3.114,-2.949 -0.563,-2.311 -0.539,-3.688 0,-5.901 0.466,-1.9304 1.958,-2.949 3.663,-2.949 h 2.2 5.864 V 7.7574 h -5.864 z"
             sodipodi:nodetypes="csscccccccssccccccc" />
          <path
             style="fill:#ffffff"
             inkscape:connector-curvature="0"
             id="path2734"
             d="m 72.281,4.4586 c 0,-0.6124 0.491,-1.1076 1.099,-1.1076 0.606,0 1.099,0.4952 1.099,1.1076 0,0.6102 -0.493,1.1054 -1.099,1.1054 -0.608,0 -1.099,-0.4952 -1.099,-1.1054 z" />
          <path
             style="opacity:0.37674004;fill:url(#linearGradient3564)"
             inkscape:connector-curvature="0"
             id="path2738"
             d="m 76.175,1.558 c -0.868,0.021 -1.701,0.1208 -2.438,0.25 -2.482,0.4344 -2.906,1.3547 -2.906,3.0312 v 2.9063 h 5.844 v 0.0313 h -5.844 -2.219 c -1.705,0 -3.189,1.0068 -3.656,2.9372 -0.317,1.303 -0.461,2.322 -0.406,3.406 3.861,-4.3764 8.005,-4.6963 10.062,-4.687 4.073,0.018 5.992,-0.9837 7.938,-3.1875 V 4.8392 C 82.55,3.2647 81.204,2.0708 79.612,1.808 78.478,1.6211 77.29,1.531 76.175,1.558 Z"
             sodipodi:nodetypes="csccccccscsccsc" />
          <path
             style="fill:none;stroke:#274e70"
             inkscape:connector-curvature="0"
             id="path3530"
             d="m 70.481,4.8948 c 0,-1.6766 1.749,-2.5257 3.226,-2.9492 2.221,-0.6385 4.004,-0.5408 5.861,0 1.551,0.4517 2.932,1.3747 2.932,2.9492 v 5.5312 c 0,1.592 -1.327,3.204 -2.932,3.204 h -5.461 c -1.533,0 -3.68,1.687 -3.68,3.687 v 2.328 h -2.584 c -1.707,0 -2.511,-1.268 -2.932,-2.949 -0.586,-2.335 -0.612,-4.081 0,-5.901 0.593,-1.7673 1.227,-3.1586 2.932,-3.1586 h 2.638 6.155 V 7.648 L 70.481,7.627 Z"
             sodipodi:nodetypes="csscccccccsscccccc" />
          <path
             style="fill:#ffffff;fill-opacity:0.16471001"
             inkscape:connector-curvature="0"
             id="path3532"
             d="M 69.925,19.146 V 17.43 c 0,-2.286 2.083,-4.314 4.324,-4.314 h 5.329 c 1.323,0 2.407,-1.375 2.407,-2.689 V 4.8956 c 0,-0.641 -0.229,-1.1191 -0.688,-1.5312 C 80.838,2.9522 80.148,2.6383 79.422,2.4269 77.632,1.9056 76,1.8117 73.86,2.4269 73.164,2.6262 72.24,3.0038 71.774,3.4066 71.309,3.8094 70.972,4.202 70.972,4.8956 v 2.2276 h 5.669 0.5 v 0.5 0.0313 0.5 h -0.5 -5.875 -0.5 V 8.1232 h -2.438 c -0.737,0 -1.097,0.29 -1.463,0.714 -0.366,0.424 -0.684,1.2558 -0.974,2.1208 -0.58,1.724 -0.573,3.344 0,5.625 0.199,0.797 0.489,1.44 0.875,1.875 0.385,0.435 0.833,0.688 1.562,0.688 z m -1,-1 h -1.097 c -0.319,0 -0.736,-0.258 -0.812,-0.344 -0.223,-0.251 -0.479,-0.76 -0.656,-1.469 -0.546,-2.173 -0.548,-3.53 -0.032,-5.062 0.277,-0.827 0.565,-1.6046 0.782,-1.8353 0.195,-0.2082 0.608,-0.3125 0.718,-0.3125 h 1.438 v 0.0313 h 1.5 5.875 1.5 v -1.5 -0.0313 -1.5 h -1.5 -4.669 V 4.8956 c 0,-0.4461 0.597,-0.7235 0.7,-0.8125 0.299,-0.2589 0.829,-0.513 1.438,-0.6875 1.977,-0.5684 3.375,-0.4822 5.031,0 0.627,0.1826 1.17,0.4504 1.469,0.7188 0.007,0.0063 0.024,0.0247 0.031,0.0312 0.042,0.0405 0.094,0.0914 0.125,0.125 0.029,0.0352 0.073,0.0935 0.094,0.125 0.011,0.019 0.047,0.0691 0.062,0.0938 0.015,0.035 0.022,0.0859 0.031,0.125 0.007,0.032 0.028,0.0898 0.032,0.125 0.003,0.0451 0,0.1052 0,0.1562 v 5.5314 c 0,0.758 -0.649,1.689 -1.407,1.689 h -5.329 c -2.817,0 -5.324,2.457 -5.324,5.314 z"
             sodipodi:nodetypes="ccccccssssccccccccccccssssccccssssccccccccccccsssssssssscccccc" />
        </g>
      </g>
    </g>
  </g>
</svg>
